<svg width="87" height="82" viewBox="0 0 87 82" fill="none" xmlns="http://www.w3.org/2000/svg">
<path fill-rule="evenodd" clip-rule="evenodd" d="M38.3884 0.061903C31.7322 0.239927 21.7756 0.891188 16.7356 1.47823C15.6795 1.60123 15.3456 1.86179 13.8688 3.71544C11.8664 6.22875 11.5487 6.93432 8.20533 16.2932C8.03899 16.7588 7.88577 17.1725 7.86485 17.2124C7.84328 17.2536 7.72697 17.0893 7.5958 16.8322C6.91054 15.4888 6.01087 15.0865 3.78124 15.1263C1.03982 15.1752 0.0103053 16.2038 0.0103053 18.8934C0.0103053 21.6487 1.09872 22.6698 4.03825 22.6719C4.72207 22.6724 5.28162 22.6901 5.28162 22.7114C5.28162 22.7603 4.98939 23.0857 3.95508 24.1884C3.50081 24.6728 3.04702 25.1733 2.94671 25.3006C2.84646 25.428 2.71997 25.5649 2.66562 25.605C2.61127 25.6451 2.58586 25.709 2.60905 25.7469C2.63554 25.7901 2.61942 25.8035 2.56591 25.7828C2.51222 25.762 2.37206 25.8801 2.18828 26.1009C2.02757 26.2941 1.86237 26.4739 1.82114 26.5005C1.77998 26.5271 1.74624 26.5764 1.74624 26.6099C1.74624 26.6435 1.7774 26.6515 1.81545 26.6278C1.85865 26.6009 1.8683 26.6113 1.84122 26.6555C1.81737 26.6944 1.77081 26.7093 1.73767 26.6887C1.66978 26.6463 1.38671 26.8913 1.38671 26.9924C1.38671 27.0285 1.33404 27.0912 1.26968 27.1318C0.833391 27.4067 0.211043 28.6452 0.0707066 29.5176C-0.0408678 30.2116 -0.0124052 60.7835 0.100248 61.2199C0.372233 62.2737 1.21383 63.123 2.25809 63.3974C2.67964 63.5082 11.8966 63.538 12.4791 63.4304C14.4989 63.0573 14.9747 61.9535 14.9884 57.6093L14.989 57.443L45.2602 81.5135L71.9177 57.443L71.9012 59.2118C71.8803 61.4506 71.9602 61.7475 72.8195 62.6246C73.6614 63.4839 73.7081 63.49 79.3449 63.49C85.6448 63.49 86.0666 63.3608 86.7316 61.2277L86.8651 60.7991V44.9862C86.8651 29.6953 86.8614 29.1613 86.7528 28.8105C86.3883 27.6332 86.2619 27.4687 83.7548 24.9102L81.592 22.703L83.0002 22.667C86.1565 22.5865 87.5455 20.7174 86.8048 17.5473C86.4116 15.8639 85.3449 15.1653 83.1087 15.1265C80.8356 15.087 79.9527 15.5036 79.2377 16.953L79.0628 17.3076L79.0008 17.133C78.9667 17.0369 78.7631 16.4686 78.5483 15.8699C78.3336 15.2713 77.8166 13.829 77.3995 12.665C75.7678 8.11094 75.4748 7.42388 74.4554 5.75957C73.8939 4.84284 73.582 4.41024 73.5133 4.45305C73.4808 4.47337 73.4713 4.46188 73.4923 4.4276C73.5905 4.26735 71.6517 2.0042 71.1745 1.72199C70.8846 1.55055 70.3962 1.48113 67.78 1.23938C56.9194 0.235755 46.8993 -0.165646 38.3884 0.061903ZM48.2755 3.08117C54.7975 3.24692 61.4634 3.66664 68.8273 4.37535L69.7247 4.4617L69.9544 4.72348C70.8136 5.70321 71.6759 6.90729 72.2204 7.88787C72.8476 9.01745 73.1243 9.65426 73.7702 11.4556C74.0088 12.1208 74.3331 13.0187 74.4909 13.4511C75.3461 15.794 76.7084 19.5874 76.7084 19.6258C76.7084 19.6387 61.7429 19.6493 43.4518 19.6493C25.1607 19.6493 10.1952 19.6387 10.1952 19.6258C10.1952 19.6129 10.2862 19.3476 10.3975 19.0362C10.7811 17.9628 12.0614 14.4165 12.3811 13.5418C12.5574 13.0596 12.8962 12.1208 13.1341 11.4556C14.1853 8.51579 15.0538 6.94478 16.6852 5.03199C17.0533 4.60048 17.2036 4.46696 17.3484 4.44302C17.5851 4.40383 21.8267 4.02154 23.378 3.89951C24.9149 3.77863 26.9499 3.628 27.5126 3.59347C27.7598 3.57829 28.3935 3.53826 28.9208 3.50446C35.3561 3.09217 42.5324 2.93519 48.2755 3.08117ZM4.93216 18.2365C4.95421 18.2492 5.05925 18.5382 5.16562 18.8788C5.27198 19.2194 5.37169 19.5327 5.38715 19.575C5.40944 19.6359 5.16801 19.6485 4.2249 19.6355L3.03456 19.619L3.01742 18.9578C2.99387 18.0479 2.90447 18.1211 3.97815 18.171C4.48083 18.1944 4.91017 18.2238 4.93216 18.2365ZM83.8859 18.9085L83.9027 19.6493H82.726C81.8102 19.6493 81.5552 19.6325 81.5761 19.5737C81.5909 19.5322 81.7071 19.1913 81.8343 18.8163L82.0655 18.1345L82.9673 18.1511L83.869 18.1678L83.8859 18.9085ZM74.9118 22.9008C72.1159 25.2484 68.3797 29.0882 66.4251 31.6223C65.6469 32.6314 65.4516 32.9047 64.8764 33.7897C61.9611 38.2751 62.2615 39.5303 66.1621 39.1618C66.7389 39.1073 67.9388 38.9938 68.8287 38.9096C69.7185 38.8254 71.0533 38.7035 71.7948 38.6386C78.3781 38.0629 78.4907 38.0376 79.5188 36.9054C81.1129 35.1499 81.5413 29.4483 80.1414 28.618C79.1389 28.0234 74.8717 28.776 71.9796 30.0576L71.5851 30.2324L73.0236 28.7959C74.7067 27.1149 78.0177 24.121 78.5456 23.8027C78.5884 23.777 78.7251 23.9178 78.9012 24.1692C79.0586 24.3938 80.1904 25.598 81.4162 26.8452C82.6421 28.0924 83.6954 29.2081 83.757 29.3245C83.9104 29.6143 83.9654 52.9258 83.8139 53.3748C83.6933 53.7319 83.4487 54.0343 83.1256 54.226L82.8504 54.3893L43.5727 54.4046C7.9222 54.4185 4.26865 54.4111 4.01014 54.3244C3.84386 54.2687 3.61616 54.1219 3.46306 53.9717C2.96223 53.4805 3.00142 54.5857 3.01898 41.4464L3.03456 29.778L3.18436 29.5271C3.31062 29.3155 5.40494 27.0078 6.93517 25.3939C7.39129 24.9128 7.7326 24.5174 7.9781 24.1856C8.34848 23.685 8.28724 23.7052 8.61531 23.9746C9.16797 24.4283 11.0022 26.0299 11.482 26.4776C11.7465 26.7245 12.1247 27.0751 12.3224 27.2569C12.6853 27.5904 14.2946 29.1837 14.959 29.8672L15.3185 30.237L14.7011 29.9612C12.0173 28.7626 7.74315 28.0383 6.76541 28.6166C6.09045 29.0158 6.00069 29.319 6.00069 31.2003C6.00069 36.1391 7.13123 37.9028 10.4948 38.2113C14.6663 38.594 18.1753 38.917 20.1087 39.0961C23.2814 39.3901 23.7202 39.2667 23.9316 38.0211C24.0963 37.0507 22.3168 33.8316 20.1745 31.2247C20.0084 31.0227 19.7647 30.7236 19.6329 30.5601C18.1872 28.7671 15.0753 25.6117 12.5471 23.3752L11.753 22.6728L43.4667 22.674L75.1804 22.6751L74.9118 22.9008ZM9.94833 31.6838C12.3611 32.1319 15.0326 33.2864 17.0563 34.7555C17.6518 35.1878 18.4816 35.8591 18.4528 35.8854C18.4427 35.8946 17.5985 35.825 16.5769 35.7307C15.5552 35.6364 13.6743 35.4628 12.397 35.3451C9.91735 35.1164 9.76497 35.0853 9.51947 34.7581C9.09211 34.1883 8.76314 31.4489 9.1316 31.5281C9.20578 31.5441 9.57328 31.6141 9.94833 31.6838ZM77.8877 32.4236C77.825 33.9808 77.5776 34.7729 77.0713 35.0371C76.9302 35.1107 72.1594 35.5918 69.2182 35.829C69.0039 35.8463 68.7343 35.8733 68.6189 35.889L68.4092 35.9176L68.6489 35.7001C70.8444 33.7081 75.0428 31.7992 77.8709 31.507C77.9023 31.5038 77.9093 31.8879 77.8877 32.4236ZM26.4791 36.3698C25.1706 36.8577 25.1781 38.7429 26.4906 39.2101C26.7156 39.2902 27.6049 39.302 33.4207 39.302H40.0927L41.5966 40.0579C43.5881 41.0588 43.3228 41.0577 45.2602 40.073L46.7175 39.3323L52.8043 39.302L58.8911 39.2718L59.185 39.0884C60.1582 38.4811 60.1577 37.099 59.1841 36.4916L58.8911 36.3088H52.4447H45.9985L44.7251 36.9591L43.4518 37.6094L42.1785 36.9591L40.9051 36.3088L33.8044 36.2974C27.8837 36.2879 26.6663 36.2999 26.4791 36.3698ZM7.00959 40.909C5.94879 41.2385 5.85567 41.7658 6.38874 44.4255C7.41891 49.5659 9.35055 51.4282 14.2399 51.9949C18.646 52.5056 22.6154 52.9181 22.7956 52.884C23.3209 52.7846 23.871 52.2022 23.9516 51.6603L23.9908 51.396H43.4518H62.9128L62.952 51.6603C63.0368 52.2308 63.5945 52.7959 64.1567 52.881C64.5729 52.944 74.0822 51.8593 74.7798 51.6692C78.0779 50.7708 79.66 48.7457 80.5436 44.2914C81.0063 41.9584 80.9827 41.6394 80.3109 41.1433C79.7458 40.7261 80.4621 40.6881 72.7835 41.5423C68.541 42.0142 67.8424 42.2256 66.2753 43.5121L65.8791 43.8373H43.4516H21.024L20.718 43.5736C19.092 42.1727 18.5574 42.0313 12.2326 41.3291C7.15334 40.7652 7.40681 40.7856 7.00959 40.909ZM13.1809 44.4731C16.8522 44.8845 17.1345 44.9305 17.7653 45.2191C19.2785 45.9115 20.1775 47.1985 20.5067 49.1439C20.5997 49.6934 20.6277 49.6743 19.8587 49.5868C19.0021 49.4892 19.1237 49.5029 16.0076 49.1554C13.2317 48.8458 12.826 48.7777 12.265 48.5274C11.0687 47.9935 10.2187 47.061 9.75365 45.7723C9.6507 45.4871 9.41623 44.3899 9.41623 44.1934C9.41623 44.0418 9.16593 44.0232 13.1809 44.4731ZM77.4874 44.1917C77.4874 45.5303 76.5945 47.2379 75.4708 48.0484C74.5103 48.7412 74.4638 48.7514 69.8773 49.2797C69.301 49.3461 68.3766 49.4455 67.9298 49.4892C67.7651 49.5052 67.3524 49.5493 67.0127 49.5872C66.2468 49.6725 66.1973 49.4579 66.6561 48.0413C67.3985 45.749 68.569 45.0486 72.3642 44.6254C73.5506 44.4931 74.8718 44.3412 75.3002 44.2878C77.1499 44.0573 77.4874 44.0425 77.4874 44.1917ZM63.853 46.9666C63.8283 47.0248 63.7378 47.3647 63.6519 47.722L63.4956 48.3716L43.4428 48.372L23.39 48.3725L23.2906 47.9039C23.2359 47.6461 23.1523 47.3147 23.1048 47.1675C23.0573 47.0202 23.0185 46.891 23.0185 46.8803C23.0185 46.8695 32.2163 46.8608 43.4582 46.8608C62.9018 46.8608 63.8957 46.8659 63.853 46.9666ZM3.72366 57.3569C4.03339 57.4237 4.92125 57.4412 8.05948 57.442L12.0059 57.443L11.9721 57.5791C11.9536 57.6539 11.9344 58.3342 11.9295 59.0908L11.9206 60.4665H7.4626H3.0046V58.8273V57.188L3.16938 57.2305C3.25998 57.2538 3.50944 57.3107 3.72366 57.3569ZM83.8362 58.8338L83.8284 60.4665H79.8881C77.7209 60.4665 75.701 60.4489 75.3993 60.4272L74.8508 60.388L74.851 59.9586C74.8511 59.7224 74.8688 59.0609 74.8903 58.4885L74.9294 57.4477L79.0397 57.4271C82.6133 57.4091 83.1891 57.3937 83.4496 57.3091C83.6144 57.2557 83.7705 57.2096 83.7966 57.2065C83.8226 57.2036 83.8405 57.9359 83.8362 58.8338Z" fill="#E63728"/>
</svg>
