<svg width="106" height="147" viewBox="0 0 106 147" fill="none" xmlns="http://www.w3.org/2000/svg">
<path fill-rule="evenodd" clip-rule="evenodd" d="M40.5083 0.323444C37.1884 1.3903 34.6172 3.95558 33.9024 6.91364C33.2846 9.47145 32.2971 21.0347 32.601 22.1576C33.6098 25.888 36.6779 28.3746 40.2723 28.3746C41.2087 28.3746 41.2298 28.4019 41.2298 29.615V30.8554L43.4662 31.378C44.6961 31.6657 45.8651 31.9616 46.0633 32.036C46.3291 32.1357 46.424 31.6723 46.424 30.273V28.3746H53.0611H59.6982V30.273C59.6982 31.6723 59.7931 32.1357 60.0589 32.036C60.2575 31.9616 61.4262 31.6657 62.656 31.378L64.8925 30.8554V29.6549V28.4545L66.6034 28.2999C70.6898 27.9309 73.7547 24.7275 73.8168 20.7603C73.983 10.122 71.6407 3.01946 67.2596 0.877129L65.6139 0.0726057L53.6383 0.0125538C44.5056 -0.0331316 41.3885 0.0404248 40.5083 0.323444ZM28.2441 33.5724C10.588 35.8334 6.90529 42.8215 9.24819 69.6199C10.648 85.6302 10.1341 94.4222 6.95781 108.802C6.82796 109.391 6.88769 109.464 7.35229 109.285C12.3151 107.377 20.5131 109.171 24.8457 113.114C26.2599 114.401 27.9723 114.91 27.9512 114.037C27.9486 113.937 27.695 112.475 27.3868 110.789C23.9061 91.7244 25.8735 64.3508 32.3603 41.5917L33.3022 38.2874L35.0296 38.3616C35.9795 38.4027 37.1592 38.5018 37.6509 38.582L38.5452 38.7282L37.44 42.6615C36.832 44.8248 35.8748 48.6692 35.3129 51.2046C34.7508 53.74 34.2265 56.1053 34.1477 56.461L34.0046 57.1075H53.0611H72.1177L71.9745 56.461C71.8958 56.1053 71.3714 53.74 70.8093 51.2046C70.2474 48.6692 69.2903 44.8248 68.6822 42.6615L67.577 38.7282L68.4713 38.582C68.963 38.5018 70.1369 38.4027 71.08 38.3616L72.7944 38.2874L73.7533 41.5917C80.2218 63.8825 82.2006 91.4058 78.7305 110.817C77.8931 115.501 78.2613 115.899 81.05 113.329C85.6063 109.129 93.6285 107.297 98.7699 109.284C99.2348 109.464 99.2946 109.391 99.1644 108.802C95.9474 94.2374 95.5027 87.3872 96.7502 71.6025C98.946 43.8174 96.2859 37.185 81.7726 34.2591C74.5523 32.8035 69.3364 32.9997 61.4553 35.0237C55.0531 36.6678 51.072 36.6672 44.6459 35.0211C38.0818 33.3399 33.3333 32.9204 28.2441 33.5724ZM33.0188 62.926C30.598 73.9416 30.2612 96.4875 32.3288 109.114C33.0341 113.421 32.5796 112.964 35.6413 112.443C44.7183 110.899 56.4365 110.963 67.3453 112.616C69.5673 112.952 71.7711 113.24 72.2429 113.254L73.1005 113.28L73.5931 110.407C75.7464 97.8494 75.7793 81.8731 73.6832 66.7331C73.4425 64.9947 73.1816 63.2817 73.1034 62.926L72.9614 62.2795H53.0611H33.1608L33.0188 62.926ZM9.71221 111.996C-5.67691 114.578 -1.9408 138.393 15.0222 145.844L17.4228 146.898L52.4667 146.974C83.0403 147.041 87.7019 146.995 89.0114 146.616C107.562 141.247 112.645 114.293 95.5579 111.905C90.75 111.234 85.84 112.954 82.3039 116.55L80.3938 118.492L77.0438 117.694C59.9363 113.618 40.4405 113.57 27.7793 117.573L25.5235 118.287L23.7341 116.478C20.0366 112.742 14.9529 111.117 9.71221 111.996Z" fill="url(#paint0_linear_1_119)"/>
<defs>
<linearGradient id="paint0_linear_1_119" x1="53" y1="0" x2="53" y2="147" gradientUnits="userSpaceOnUse">
<stop/>
<stop offset="1" stop-color="#363636" stop-opacity="0.85"/>
</linearGradient>
</defs>
</svg>
