<svg width="75" height="75" viewBox="0 0 75 75" fill="none" xmlns="http://www.w3.org/2000/svg">
<path d="M37.5388 9.72699L42.6014 31.1815L64.0559 36.2441L42.6014 41.3067L37.5388 62.7612L32.4762 41.3067L11.0217 36.2441L32.4762 31.1815L37.5388 9.72699Z" fill="#D9D9D9"/>
<path d="M37.5388 9.72699L42.6014 31.1815L64.0559 36.2441L42.6014 41.3067L37.5388 62.7612L32.4762 41.3067L11.0217 36.2441L32.4762 31.1815L37.5388 9.72699Z" stroke="white"/>
<path d="M36.9313 31.1947L37.4593 31.5162L37.9829 31.1876L53.0646 21.7223L43.8053 36.9313L43.4838 37.4593L43.8125 37.9829L53.2778 53.0646L38.0687 43.8053L37.5407 43.4839L37.0171 43.8125L21.9354 53.2778L31.1947 38.0687L31.5162 37.5407L31.1876 37.0171L21.7222 21.9354L36.9313 31.1947Z" fill="#D9D9D9" stroke="white" stroke-width="2"/>
<circle cx="37.9334" cy="37.9337" r="26.0955" stroke="white" stroke-width="2"/>
</svg>
